<svg width="45" height="45" viewBox="0 0 45 45" fill="none" xmlns="http://www.w3.org/2000/svg">
<path d="M21.8537 38.7138C21.5074 38.746 21.162 38.6429 20.8899 38.4262C20.6178 38.2096 20.44 37.8961 20.3937 37.5513L16.7837 6.42008C16.6975 5.70758 17.6287 5.00383 18.855 4.89508C20.0812 4.78633 21.1187 5.31508 21.16 6.03133L23.0862 37.3113C23.1011 37.6589 22.9812 37.9987 22.7515 38.26C22.5219 38.5213 22.2003 38.6839 21.8537 38.7138ZM27.1025 38.5313C26.7551 38.5253 26.4235 38.3852 26.1771 38.1404C25.9306 37.8955 25.7883 37.5649 25.78 37.2176L25.54 5.87883C25.5312 5.16133 26.5287 4.56133 27.7562 4.58633C28.9837 4.61008 29.9562 5.24633 29.92 5.96383L28.4737 37.2701C28.4525 37.6168 28.2978 37.9418 28.0422 38.1769C27.7865 38.4121 27.4498 38.5391 27.1025 38.5313ZM32.3337 38.9138C31.9892 38.8705 31.6747 38.6957 31.4559 38.426C31.2372 38.1562 31.1312 37.8124 31.16 37.4663L34.2862 6.28258C34.3537 5.56758 35.41 5.07883 36.6275 5.23508C37.845 5.39008 38.745 6.12758 38.6312 6.83633L33.8325 37.8063C33.774 38.1487 33.5854 38.4553 33.306 38.6617C33.0266 38.8681 32.6782 38.9585 32.3337 38.9138Z" fill="#FFE8B6"/>
<path d="M24.4775 38.5513C24.1302 38.5643 23.7914 38.4425 23.5318 38.2114C23.2723 37.9803 23.1122 37.6578 23.085 37.3113L21.1588 6.03132C21.1113 5.31507 22.0763 4.66257 23.305 4.62132C24.5338 4.57882 25.54 5.16257 25.5413 5.88007L25.7813 37.2188C25.7776 37.5661 25.6399 37.8986 25.397 38.1469C25.1541 38.3952 24.8247 38.5401 24.4775 38.5513ZM29.7238 38.6526C29.3774 38.6279 29.054 38.4702 28.8213 38.2125C28.5885 37.9548 28.4644 37.6171 28.475 37.2701L29.9213 5.96382C29.9513 5.24632 30.9788 4.70132 32.2025 4.79132C33.4263 4.88007 34.3638 5.56882 34.2888 6.28257L31.1625 37.4663C31.1216 37.8113 30.9492 38.1272 30.6812 38.3481C30.4131 38.5691 30.0702 38.6782 29.7238 38.6526Z" fill="#D99E82"/>
<path d="M37.2263 39.7537L35.935 39.5549C35.2513 39.4478 34.6378 39.0743 34.2286 38.5161C33.8194 37.958 33.6478 37.2605 33.7513 36.5762L38.12 8.18244C38.2272 7.4987 38.6007 6.8852 39.1588 6.476C39.717 6.06681 40.4145 5.8952 41.0988 5.99869L42.39 6.19744C43.0737 6.30462 43.6873 6.67811 44.0964 7.23627C44.5056 7.79444 44.6772 8.49189 44.5738 9.17619L40.205 37.5699C40.0975 38.2535 39.724 38.8668 39.1659 39.276C38.6078 39.6851 37.9105 39.8568 37.2263 39.7537Z" fill="#BE1931"/>
<path d="M41.595 12.6662C42.3164 12.6662 42.9013 12.0814 42.9013 11.36C42.9013 10.6385 42.3164 10.0537 41.595 10.0537C40.8736 10.0537 40.2888 10.6385 40.2888 11.36C40.2888 12.0814 40.8736 12.6662 41.595 12.6662Z" fill="#F5F8FA"/>
<path d="M41.595 12.6662C42.3164 12.6662 42.9013 12.0814 42.9013 11.36C42.9013 10.6385 42.3164 10.0537 41.595 10.0537C40.8736 10.0537 40.2888 10.6385 40.2888 11.36C40.2888 12.0814 40.8736 12.6662 41.595 12.6662Z" fill="#F5F8FA"/>
<path d="M40.9988 16.5388C41.7202 16.5388 42.305 15.9539 42.305 15.2325C42.305 14.5111 41.7202 13.9263 40.9988 13.9263C40.2773 13.9263 39.6925 14.5111 39.6925 15.2325C39.6925 15.9539 40.2773 16.5388 40.9988 16.5388Z" fill="#F5F8FA"/>
<path d="M40.4025 20.41C41.1239 20.41 41.7088 19.8252 41.7088 19.1037C41.7088 18.3823 41.1239 17.7975 40.4025 17.7975C39.6811 17.7975 39.0963 18.3823 39.0963 19.1037C39.0963 19.8252 39.6811 20.41 40.4025 20.41Z" fill="#F5F8FA"/>
<path d="M39.8075 24.2825C40.5289 24.2825 41.1137 23.6977 41.1137 22.9763C41.1137 22.2549 40.5289 21.67 39.8075 21.67C39.0861 21.67 38.5013 22.2549 38.5013 22.9763C38.5013 23.6977 39.0861 24.2825 39.8075 24.2825Z" fill="#F5F8FA"/>
<path d="M39.2112 28.1538C39.9327 28.1538 40.5175 27.5689 40.5175 26.8475C40.5175 26.1261 39.9327 25.5413 39.2112 25.5413C38.4898 25.5413 37.905 26.1261 37.905 26.8475C37.905 27.5689 38.4898 28.1538 39.2112 28.1538Z" fill="#F5F8FA"/>
<path d="M38.6162 32.0262C39.3377 32.0262 39.9225 31.4414 39.9225 30.7199C39.9225 29.9985 39.3377 29.4137 38.6162 29.4137C37.8948 29.4137 37.31 29.9985 37.31 30.7199C37.31 31.4414 37.8948 32.0262 38.6162 32.0262Z" fill="#F5F8FA"/>
<path d="M38.02 35.8975C38.7414 35.8975 39.3262 35.3127 39.3262 34.5913C39.3262 33.8699 38.7414 33.285 38.02 33.285C37.2986 33.285 36.7137 33.8699 36.7137 34.5913C36.7137 35.3127 37.2986 35.8975 38.02 35.8975Z" fill="#F5F8FA"/>
<path d="M18.2388 39.065L6.5625 40.3975C5.87468 40.4739 5.18458 40.275 4.64288 39.8443C4.10118 39.4136 3.75188 38.7861 3.67125 38.0988L0.41375 9.55629C0.337052 8.8684 0.535801 8.17812 0.966553 7.63634C1.39731 7.09456 2.02503 6.74535 2.7125 6.66504L14.3888 5.33254C15.0766 5.25617 15.7667 5.45505 16.3084 5.88574C16.8501 6.31643 17.1994 6.94395 17.28 7.63129L20.5375 36.1738C20.6142 36.8617 20.4155 37.552 19.9847 38.0937C19.5539 38.6355 18.9262 38.9847 18.2388 39.065Z" fill="#BE1931"/>
<path d="M9.86375 9.79129L2.93625 10.5825C2.65063 10.6142 2.3641 10.5315 2.13925 10.3526C1.9144 10.1736 1.76951 9.91297 1.73625 9.62754L1.68625 9.18754C1.65459 8.90193 1.73727 8.61539 1.91621 8.39054C2.09515 8.16569 2.35582 8.0208 2.64125 7.98754L9.5675 7.19754C9.85312 7.16588 10.1397 7.24856 10.3645 7.4275C10.5894 7.60644 10.7342 7.86711 10.7675 8.15254L10.8175 8.59254C10.8488 8.87776 10.7662 9.1638 10.5875 9.38834C10.4089 9.61288 10.1487 9.75772 9.86375 9.79129ZM10.3075 13.6838L3.38125 14.475C3.09563 14.5067 2.8091 14.424 2.58425 14.2451C2.3594 14.0661 2.21451 13.8055 2.18125 13.52L2.13125 13.08C2.09924 12.7946 2.18161 12.508 2.36036 12.2831C2.5391 12.0582 2.79966 11.9133 3.085 11.88L10.0113 11.09C10.2969 11.0584 10.5834 11.1411 10.8083 11.32C11.0331 11.4989 11.178 11.7596 11.2113 12.045L11.2613 12.485C11.2933 12.7704 11.2108 13.0568 11.0321 13.2815C10.8533 13.5062 10.5927 13.6508 10.3075 13.6838ZM10.7513 17.5763L3.825 18.3663C3.53938 18.398 3.25285 18.3153 3.028 18.1363C2.80315 17.9574 2.65826 17.6967 2.625 17.4113L2.575 16.9713C2.54334 16.6857 2.62602 16.3991 2.80496 16.1743C2.9839 15.9494 3.24457 15.8046 3.53 15.7713L10.4563 14.9813C10.7419 14.9496 11.0284 15.0323 11.2533 15.2113C11.4781 15.3902 11.623 15.6509 11.6562 15.9363L11.7063 16.3763C11.7379 16.6619 11.6552 16.9484 11.4763 17.1733C11.2973 17.3981 11.0367 17.543 10.7513 17.5763ZM11.1962 21.4688L4.27 22.2588C3.98438 22.2905 3.69785 22.2078 3.473 22.0288C3.24815 21.8499 3.10326 21.5892 3.07 21.3038L3.02 20.8638C2.98834 20.5782 3.07102 20.2916 3.24996 20.0668C3.4289 19.8419 3.68957 19.6971 3.975 19.6638L10.9012 18.8738C11.1869 18.8421 11.4734 18.9248 11.6983 19.1038C11.9231 19.2827 12.068 19.5434 12.1013 19.8288L12.1513 20.2688C12.1829 20.5544 12.1002 20.8409 11.9213 21.0658C11.7423 21.2906 11.4817 21.4355 11.1962 21.4688ZM11.64 25.36L4.71375 26.15C4.42813 26.1817 4.1416 26.099 3.91675 25.9201C3.6919 25.7411 3.54701 25.4805 3.51375 25.195L3.46375 24.755C3.43209 24.4694 3.51477 24.1829 3.69371 23.958C3.87265 23.7332 4.13332 23.5883 4.41875 23.555L11.345 22.765C11.6306 22.7334 11.9172 22.8161 12.142 22.995C12.3669 23.1739 12.5117 23.4346 12.545 23.72L12.595 24.16C12.6267 24.4457 12.544 24.7322 12.365 24.957C12.1861 25.1819 11.9254 25.3268 11.64 25.36ZM12.0838 29.2525L5.1575 30.0425C4.87189 30.0742 4.58535 29.9915 4.3605 29.8126C4.13565 29.6336 3.99076 29.373 3.9575 29.0875L3.9075 28.6475C3.87584 28.3619 3.95852 28.0754 4.13746 27.8505C4.3164 27.6257 4.57707 27.4808 4.8625 27.4475L11.7888 26.6575C12.0744 26.6259 12.3609 26.7086 12.5858 26.8875C12.8106 27.0664 12.9555 27.3271 12.9888 27.6125L13.0388 28.0525C13.0704 28.3382 12.9877 28.6247 12.8088 28.8495C12.6298 29.0744 12.3692 29.2193 12.0838 29.2525ZM12.5288 33.145L5.6025 33.935C5.31688 33.9667 5.03035 33.884 4.8055 33.7051C4.58065 33.5261 4.43576 33.2655 4.4025 32.98L4.3525 32.54C4.32084 32.2544 4.40352 31.9679 4.58246 31.743C4.7614 31.5182 5.02207 31.3733 5.3075 31.34L12.2338 30.55C12.5194 30.5184 12.8059 30.6011 13.0308 30.78C13.2556 30.9589 13.4005 31.2196 13.4338 31.505L13.4838 31.945C13.5154 32.2307 13.4327 32.5172 13.2538 32.742C13.0748 32.9669 12.8142 33.1118 12.5288 33.145ZM12.9725 37.0375L6.04625 37.8275C5.76063 37.8592 5.4741 37.7765 5.24925 37.5976C5.0244 37.4186 4.87951 37.158 4.84625 36.8725L4.79625 36.4325C4.76459 36.1469 4.84727 35.8604 5.02621 35.6355C5.20515 35.4107 5.46582 35.2658 5.75125 35.2325L12.6775 34.4425C12.9631 34.4109 13.2497 34.4936 13.4745 34.6725C13.6994 34.8514 13.8442 35.1121 13.8775 35.3975L13.9275 35.8375C13.9592 36.1232 13.8765 36.4097 13.6975 36.6345C13.5186 36.8594 13.2579 37.0043 12.9725 37.0375Z" fill="#F5F8FA"/>
<path d="M6.97751 11.4351L10.0113 11.0888C10.2967 11.0555 10.5574 10.9107 10.7363 10.6858C10.9152 10.461 10.9979 10.1744 10.9663 9.88881L10.9163 9.44881C10.883 9.16337 10.7381 8.90271 10.5133 8.72376C10.2884 8.54482 10.0019 8.46215 9.71626 8.49381L6.68126 8.84006C6.39583 8.87332 6.13516 9.0182 5.95622 9.24305C5.77727 9.4679 5.6946 9.75444 5.72626 10.0401L5.77626 10.4801C5.80951 10.7657 5.95458 11.0266 6.1797 11.2056C6.40483 11.3846 6.69169 11.4671 6.97751 11.4351ZM7.42126 15.3276L10.455 14.9813C10.7404 14.948 11.0011 14.8032 11.1801 14.5783C11.359 14.3535 11.4417 14.0669 11.41 13.7813L11.36 13.3413C11.3267 13.0559 11.1819 12.7952 10.957 12.6163C10.7322 12.4373 10.4456 12.3546 10.16 12.3863L7.12501 12.7326C6.83958 12.7658 6.57891 12.9107 6.39997 13.1356C6.22102 13.3604 6.13835 13.6469 6.17001 13.9326L6.22001 14.3726C6.25358 14.6581 6.39872 14.9188 6.62377 15.0977C6.84882 15.2766 7.13551 15.3592 7.42126 15.3276ZM8.31001 23.1126L11.3438 22.7663C11.6292 22.733 11.8899 22.5882 12.0688 22.3633C12.2477 22.1385 12.3304 21.8519 12.2988 21.5663L12.2488 21.1251C12.2155 20.8396 12.0706 20.579 11.8458 20.4C11.6209 20.2211 11.3344 20.1384 11.0488 20.1701L8.01501 20.5163C7.72958 20.5496 7.46891 20.6945 7.28997 20.9193C7.11102 21.1442 7.02835 21.4307 7.06001 21.7163L7.11001 22.1563C7.14297 22.442 7.28772 22.7029 7.51261 22.8821C7.73749 23.0614 8.0242 23.1442 8.31001 23.1126ZM8.75376 27.0038L11.7875 26.6576C12.0729 26.6243 12.3336 26.4794 12.5126 26.2546C12.6915 26.0297 12.7742 25.7432 12.7425 25.4576L12.6925 25.0176C12.6592 24.7321 12.5144 24.4715 12.2895 24.2925C12.0647 24.1136 11.7781 24.0309 11.4925 24.0626L8.45876 24.4088C8.17333 24.4421 7.91266 24.587 7.73372 24.8118C7.55477 25.0367 7.4721 25.3232 7.50376 25.6088L7.55376 26.0488C7.58702 26.3342 7.73191 26.5949 7.95676 26.7738C8.18161 26.9528 8.46814 27.0355 8.75376 27.0038ZM9.19751 30.8963L12.2313 30.5501C12.5167 30.5168 12.7774 30.3719 12.9563 30.1471C13.1352 29.9222 13.2179 29.6357 13.1863 29.3501L13.1363 28.9101C13.103 28.6246 12.9581 28.364 12.7333 28.185C12.5084 28.0061 12.2219 27.9234 11.9363 27.9551L8.90251 28.3013C8.61708 28.3346 8.35641 28.4795 8.17747 28.7043C7.99852 28.9292 7.91585 29.2157 7.94751 29.5013L7.99751 29.9413C8.03077 30.2267 8.17566 30.4874 8.40051 30.6663C8.62536 30.8453 8.91189 30.928 9.19751 30.8963ZM10.0863 38.6813L13.12 38.3351C13.4054 38.3018 13.6661 38.1569 13.8451 37.9321C14.024 37.7072 14.1067 37.4207 14.075 37.1351L14.025 36.6951C13.9917 36.4096 13.8469 36.149 13.622 35.97C13.3972 35.7911 13.1106 35.7084 12.825 35.7401L9.79126 36.0863C9.50583 36.1196 9.24516 36.2645 9.06622 36.4893C8.88727 36.7142 8.8046 37.0007 8.83626 37.2863L8.88626 37.7263C8.91952 38.0117 9.06441 38.2724 9.28926 38.4513C9.51411 38.6303 9.80064 38.713 10.0863 38.6813Z" fill="#292F33"/>
<path d="M12.6287 8.16125L15.4437 7.84C15.5865 7.82336 15.7168 7.75092 15.8063 7.6385C15.8957 7.52607 15.9371 7.3828 15.9212 7.24L15.8962 7.02C15.8796 6.87728 15.8072 6.74695 15.6947 6.65748C15.5823 6.568 15.439 6.52667 15.2962 6.5425L12.4812 6.865C12.3385 6.88163 12.2082 6.95407 12.1187 7.0665C12.0292 7.17892 11.9879 7.32219 12.0037 7.465L12.0287 7.685C12.0454 7.82762 12.1178 7.95784 12.2303 8.04712C12.3428 8.13639 12.4861 8.17743 12.6287 8.16125ZM12.925 10.7562L15.74 10.435C15.8827 10.4184 16.013 10.3459 16.1025 10.2335C16.192 10.1211 16.2333 9.9778 16.2175 9.835L16.1925 9.615C16.1759 9.47228 16.1034 9.34195 15.991 9.25248C15.8786 9.163 15.7353 9.12167 15.5925 9.1375L12.7775 9.45875C12.6347 9.47568 12.5043 9.54839 12.4149 9.66101C12.3254 9.77364 12.2841 9.91705 12.3 10.06L12.325 10.28C12.3419 10.4225 12.4145 10.5525 12.5269 10.6417C12.6393 10.7309 12.7824 10.7721 12.925 10.7562ZM13.2212 13.3512L16.0362 13.03C16.179 13.0134 16.3093 12.9409 16.3988 12.8285C16.4882 12.7161 16.5296 12.5728 16.5137 12.43L16.4887 12.21C16.4721 12.0673 16.3997 11.9369 16.2872 11.8475C16.1748 11.758 16.0315 11.7167 15.8887 11.7325L13.0737 12.0537C12.931 12.0704 12.8007 12.1428 12.7112 12.2552C12.6217 12.3677 12.5804 12.5109 12.5962 12.6537L12.6212 12.8737C12.6379 13.0165 12.7103 13.1468 12.8227 13.2363C12.9352 13.3257 13.0784 13.3671 13.2212 13.3512ZM13.5175 15.9462L16.3325 15.625C16.4752 15.6084 16.6055 15.5359 16.695 15.4235C16.7845 15.3111 16.8258 15.1678 16.81 15.025L16.785 14.805C16.7684 14.6623 16.6959 14.5319 16.5835 14.4425C16.4711 14.353 16.3278 14.3117 16.185 14.3275L13.37 14.6487C13.2273 14.6654 13.0969 14.7378 13.0075 14.8502C12.918 14.9627 12.8767 15.1059 12.8925 15.2487L12.9175 15.4687C12.9341 15.6115 13.0066 15.7418 13.119 15.8313C13.2314 15.9207 13.3747 15.9621 13.5175 15.9462ZM13.8137 18.5412L16.6287 18.22C16.7715 18.2034 16.9018 18.1309 16.9913 18.0185C17.0807 17.9061 17.1221 17.7628 17.1062 17.62L17.0812 17.4C17.0646 17.2573 16.9922 17.1269 16.8797 17.0375C16.7673 16.948 16.624 16.9067 16.4812 16.9225L13.6662 17.2437C13.5235 17.2604 13.3932 17.3328 13.3037 17.4452C13.2142 17.5577 13.1729 17.7009 13.1887 17.8437L13.2137 18.0637C13.2304 18.2065 13.3028 18.3368 13.4152 18.4263C13.5277 18.5157 13.6709 18.5571 13.8137 18.5412ZM14.11 21.1362L16.925 20.815C17.0677 20.7984 17.198 20.7259 17.2875 20.6135C17.377 20.5011 17.4183 20.3578 17.4025 20.215L17.3775 19.995C17.3609 19.8523 17.2884 19.7219 17.176 19.6325C17.0636 19.543 16.9203 19.5017 16.7775 19.5175L13.9625 19.8387C13.8198 19.8554 13.6894 19.9278 13.6 20.0402C13.5105 20.1527 13.4692 20.2959 13.485 20.4387L13.51 20.6587C13.5266 20.8015 13.5991 20.9318 13.7115 21.0213C13.8239 21.1107 13.9672 21.1521 14.11 21.1362ZM14.4062 23.73L17.2212 23.4087C17.364 23.3921 17.4943 23.3197 17.5838 23.2072C17.6732 23.0948 17.7146 22.9516 17.6987 22.8087L17.6737 22.5887C17.6571 22.446 17.5847 22.3157 17.4722 22.2262C17.3598 22.1368 17.2165 22.0954 17.0737 22.1112L14.2587 22.4325C14.116 22.4491 13.9857 22.5216 13.8962 22.634C13.8067 22.7464 13.7654 22.8897 13.7812 23.0325L13.8062 23.2525C13.8387 23.55 14.11 23.765 14.4062 23.73ZM14.7025 26.325L17.5175 26.0037C17.6602 25.9871 17.7905 25.9147 17.88 25.8022C17.9695 25.6898 18.0108 25.5466 17.995 25.4037L17.97 25.1837C17.9534 25.041 17.8809 24.9107 17.7685 24.8212C17.6561 24.7318 17.5128 24.6904 17.37 24.7062L14.555 25.0275C14.4123 25.0441 14.2819 25.1166 14.1925 25.229C14.103 25.3414 14.0617 25.4847 14.0775 25.6275L14.1025 25.8475C14.1104 25.9183 14.1322 25.9868 14.1667 26.0492C14.2012 26.1115 14.2476 26.1665 14.3033 26.2108C14.3591 26.2552 14.423 26.2881 14.4915 26.3077C14.56 26.3273 14.6317 26.3332 14.7025 26.325ZM14.9975 28.92L17.8125 28.5987C17.9552 28.5821 18.0855 28.5097 18.175 28.3972C18.2645 28.2848 18.3058 28.1416 18.29 27.9987L18.265 27.7787C18.2484 27.636 18.1759 27.5057 18.0635 27.4162C17.9511 27.3268 17.8078 27.2854 17.665 27.3012L14.85 27.6225C14.7073 27.6391 14.5769 27.7116 14.4875 27.824C14.398 27.9364 14.3567 28.0797 14.3725 28.2225L14.3975 28.4425C14.4141 28.5852 14.4866 28.7155 14.599 28.805C14.7114 28.8945 14.8547 28.9358 14.9975 28.92ZM15.2937 31.515L18.1087 31.1937C18.2515 31.1771 18.3818 31.1047 18.4713 30.9922C18.5607 30.8798 18.6021 30.7366 18.5862 30.5937L18.5612 30.3737C18.5446 30.231 18.4722 30.1007 18.3597 30.0112C18.2473 29.9218 18.104 29.8804 17.9612 29.8962L15.1462 30.2175C15.0035 30.2341 14.8732 30.3066 14.7837 30.419C14.6942 30.5314 14.6529 30.6747 14.6687 30.8175L14.6937 31.0375C14.7104 31.1802 14.7828 31.3105 14.8952 31.4C15.0077 31.4895 15.1509 31.5308 15.2937 31.515ZM15.59 34.11L18.405 33.7887C18.5477 33.7721 18.678 33.6997 18.7675 33.5872C18.857 33.4748 18.8983 33.3316 18.8825 33.1887L18.8575 32.9687C18.8409 32.826 18.7684 32.6957 18.656 32.6062C18.5436 32.5168 18.4003 32.4754 18.2575 32.4912L15.4425 32.8125C15.2998 32.8291 15.1694 32.9016 15.08 33.014C14.9905 33.1264 14.9492 33.2697 14.965 33.4125L14.99 33.6325C15.0066 33.7752 15.0791 33.9055 15.1915 33.995C15.3039 34.0845 15.4472 34.1258 15.59 34.11ZM15.8862 36.705L18.7012 36.3837C18.844 36.3671 18.9743 36.2947 19.0638 36.1822C19.1532 36.0698 19.1946 35.9266 19.1787 35.7837L19.1537 35.5637C19.1371 35.421 19.0647 35.2907 18.9522 35.2012C18.8398 35.1118 18.6965 35.0704 18.5537 35.0862L15.7387 35.4075C15.596 35.4241 15.4657 35.4966 15.3762 35.609C15.2867 35.7214 15.2454 35.8647 15.2612 36.0075L15.2862 36.2275C15.3029 36.3702 15.3753 36.5005 15.4877 36.59C15.6002 36.6795 15.7434 36.7208 15.8862 36.705Z" fill="#A0041E"/>
</svg>
