<svg width="64" height="64" viewBox="0 0 64 64" fill="none" xmlns="http://www.w3.org/2000/svg">
<path d="M32.5 44.3C19.3 44.3 8.29999 40.2 5.79999 34.8C10.4 48.9 7.59999 62 32.5 62C57.4 62 54.6 48.9 59.2 34.8C56.7 40.2 45.7 44.3 32.5 44.3Z" fill="#3E4347"/>
<path d="M20.2 20.5C34.3 16.6 66.7 22.5 59.6 35.9C63.5 40.3 64.9 45 46.3 44.7C17.7 51.4 -5.9 37.5 4.5 27C2 21.9 7.5 19.3 20.2 20.5Z" fill="#6F7980"/>
<path d="M32.5 43.7C45 43.7 55.4 39.8 57.8 34.7C58 34.2 58.1 33.7 58.3 33.2C58.3 32.9 58.4 32.7 58.4 32.4C58.4 26.2 46.8 21.2 32.6 21.2C18.4 21.2 6.79999 26.2 6.79999 32.4C6.79999 32.7 6.79999 32.9 6.89999 33.2C6.99999 33.7 7.19999 34.2 7.39999 34.7C9.59999 39.8 20 43.7 32.5 43.7" fill="#3E4347"/>
<path d="M32.5 43.7C45 43.7 55.4 39.8 57.8 34.7C57.8 34.5 57.9 34.4 57.9 34.2C55.8 28.9 45.2 24.9 32.4 24.9C19.6 24.9 9.00002 28.9 6.90002 34.2C7.00002 34.4 7.00002 34.5 7.00002 34.7C9.60002 39.8 20 43.7 32.5 43.7Z" fill="#FBBF67"/>
<path d="M36 30.4C31 30.3 24.9 34.3 20.8 34C14 33.5 21 36.8 25.8 36.8C29 36.8 31.2 33.9 32.9 32.7C35.3 31.2 41.2 30.5 36 30.4" fill="#D33B23"/>
<path d="M21.2 27.1C19.9 23.5 12.4 29.4 18.8 30.7C19.8 30.9 22.3 30.3 21.2 27.1Z" fill="#FF8736"/>
<path d="M35.7 38.4C34.1 34 24.8 41.3 32.8 42.8C34 43 37.1 42.3 35.7 38.4Z" fill="#FF8736"/>
<path d="M37.4 25.8C35.9 22.2 26.6 28.1 34.5 29.4C35.6 29.5 38.7 28.9 37.4 25.8Z" fill="#FF8736"/>
<path d="M52.7 29.6999C52.1 25.7999 40.2 27.9999 48.4 32.0999C49.6 32.6999 53.2 33.1999 52.7 29.6999" fill="#FF8736"/>
<path d="M15.1 33.2001C14 31.7001 12.4 29.7001 11.8 30.7001C10.9 32.1001 10.6 34.9001 11.3 35.0001C16.3 36.0001 15.9 34.4001 15.1 33.2001" fill="#89664C"/>
<path d="M42.6 30.4C40.8 31.2 39.7 30.6 38.9 31.8C37 34.5 43.5 35.4 44.7 33.8C45.6 32.7 43.8 29.9 42.6 30.4" fill="#89664C"/>
<path d="M44.1 37.1C42.8 36.5 43.1 38.5 41.1 36.9C39.7 35.8 36.7 38.6 38.7 40.5C40.9 42.6 41.5 40.6 42.4 40.8C44.3 41.1 47.6 38.6 44.1 37.1" fill="#89664C"/>
<path d="M22.1 37.7001C20.9 36.5001 19 39.9001 19.7 40.8001C21.2 42.8001 26.6 42.4001 28 40.9001C29.8 39.1001 25 40.5001 22.1 37.7001Z" fill="#89664C"/>
<path d="M17.5 36.7001C17.5 36.7001 17.6 37.9001 17.8 38.4001C16.5 37.9001 16.5 35.6001 16.5 35.6001C16.5 35.6001 15.6 36.1001 15.7 37.0001C14.3 35.8001 13.1 36.4001 13.1 36.4001C13.1 36.4001 14.9 37.4001 15.2 38.1001C14.2 38.2001 13.6 38.5001 13.2 39.3001C13.2 39.3001 15.2 38.3001 16.7 39.0001C16.1 39.5001 16.4 40.7001 16.4 40.7001C18.8 38.2001 20.3 40.4001 21.4 39.8001C20.5 38.6001 19.2 38.4001 19.2 38.4001C18.7 37.4001 17.5 36.7001 17.5 36.7001" fill="#699635"/>
<path d="M28.3 26.9C27.1 26.7 25.9 27.3 25.9 27.3C25.9 27.3 27 27.8 27.5 28C26.4 28.9 24.4 27.7001 24.4 27.7001C24.4 27.7001 24.4 28.7 25.2 29.1C23.5 29.7 23.3 31.1 23.3 31.1C23.3 31.1 25.1 30.1001 25.8 30.2001C25.3 31.1001 25.3 31.8 25.9 32.5C25.9 32.5 26.1 30.3 27.5 29.4C27.6 30.2 28.8 30.5 28.8 30.5C27.9 27.2 30.6 27 30.6 25.8C29.2 25.8 28.3 26.9 28.3 26.9" fill="#699635"/>
<path d="M51.5999 35.9C52.0999 35.4 54.2 35.1 54.2 35.1C54.2 35.1 53.3 34.1 51.5 34.6C51.9 33.8 51.2999 33 51.2999 33C51.2999 33 50.4 35.1 49 35.1C49.4 34.6 49.9 33.6 49.9 33.6C49.9 33.6 48.5 33.9 47.7 34.8C47.7 34.8 46.4 34.4 45.2 35.2C45.9 36.2 48.2 34.7 49.4 37.9C49.4 37.9 50.0999 36.9 49.7999 36.2C51.3999 36.1 52.9 37.8 52.9 37.8C52.9 36.9 52.4999 36.4 51.5999 35.9" fill="#699635"/>
<g opacity="0.6">
<path opacity="0.6" d="M33.3 11.4C29.6 7.6 32.1 2 32.1 2C32.1 2 24.3 9.4 29.2 14.5C34.9 20.4 32.1 24 32.1 24C32.1 24 39.1 17.4 33.3 11.4" fill="#A6AEB0"/>
<path opacity="0.6" d="M22.3 14.8C19.5 12.1 21.4 8 21.4 8C21.4 8 15.6 13.4 19.3 17.1C23.6 21.4 21.4 24 21.4 24C21.4 24 26.6 19.2 22.3 14.8Z" fill="#A6AEB0"/>
<path opacity="0.6" d="M44.3 14.8C41.5 12.1 43.4 8 43.4 8C43.4 8 37.6 13.4 41.3 17.1C45.6 21.4 43.4 24 43.4 24C43.4 24 48.6 19.2 44.3 14.8Z" fill="#A6AEB0"/>
</g>
</svg>
