<svg width="45" height="45" viewBox="0 0 45 45" fill="none" xmlns="http://www.w3.org/2000/svg">
<path d="M22.875 26.875C22.625 26.875 21.75 26.875 20.625 27.0625C18.375 27.375 17.5625 26.5 16.1875 27.0625C12.875 28.375 8.5 27.4375 8.5 27.4375C8.25 27.375 8 27.125 8 26.8125C8 26.4375 8.25 26.0625 8.6875 26.0625L22.5 22.0625L22.875 26.875ZM31.8125 34.25C31.375 32.8125 32.25 32.125 32.0625 29.8125C32 28.6875 32.0625 27.8125 32.0625 27.5625L27.25 27.6875L30.9375 41.5C30.9375 41.875 31.25 42.125 31.5625 42.125C31.9375 42.125 32.1875 41.8125 32.1875 41.5C32.125 41.4375 32.875 37.5625 31.8125 34.25ZM36.9375 16.3125L36.875 16.25L34.5 14.4375L33.3125 13.5L32.125 12.625C32.0625 12.625 32.0625 12.5625 32 12.5625C31.75 12.4375 31.4375 12.375 31.125 12.4375C30.625 12.3125 30.0625 12.1875 29.4375 12.125V10.625V10.375C30.25 10 30.875 9.25004 31.0625 8.31254C31.125 8.37504 31.1875 8.37504 31.25 8.37504C31.625 8.43754 32.0625 8.18754 32.125 7.81254C32.1875 7.43754 31.9375 7.00005 31.5625 6.93754H31.4375L31.875 5.37505C32.25 3.62505 30.875 2.37504 29.125 2.06254C27.375 1.68754 25.875 2.31254 25.5 4.06254L25.125 7.00004C24.8125 8.43754 25.625 9.87504 26.875 10.375V12.0625C25.75 12.1875 24.875 12.4375 24.375 12.75C24.0625 12.75 23.625 12.6875 23.0625 12.625C22.5 12.5625 21.875 12.5 21.1875 12.375C20.875 12.3125 20.5 12.25 20.25 12.1875C20.3125 12.1875 20.3125 12.1875 20.3125 12.25L20.25 12.1875C20.25 12.1875 20.1875 12.1875 20.1875 12.125L19.875 11.8125C19.375 11.3125 19 10.625 18.6875 10C18.375 9.37504 18.125 8.75004 17.875 8.25004C17.5625 7.43754 17.3125 6.87505 17.1875 6.62504C17.1875 6.56254 17.1875 6.50004 17.25 6.43754V6.06254C17.25 5.81254 17.25 5.56255 17.1875 5.37505C17.125 4.93755 17.0625 4.50004 16.9375 4.06254C16.875 3.75004 16.5 3.50004 16.1875 3.56254C15.875 3.62504 15.625 4.00004 15.6875 4.31254C15.75 4.68754 15.875 5.12504 15.875 5.50004V5.56254L15.75 5.50004C15.5625 5.37504 15.375 5.37504 15.1875 5.56254C15 5.75004 15 6.00004 15.125 6.18754L15.875 7.06254C15.9375 7.31254 16.125 7.93755 16.375 8.81254C16.5625 9.37504 16.75 10 17.0625 10.6875C17.3125 11.375 17.625 12.125 18.0625 12.875C18.1875 13.0625 18.3125 13.25 18.5 13.4375C18.5625 13.5 18.5625 13.5625 18.625 13.5625L18.6875 13.625L18.8125 13.75C18.875 13.8125 19 13.875 19 13.875L19.0625 13.9375L19.125 14H19.1875C19.625 14.25 20 14.375 20.375 14.5C21.125 14.75 21.8125 14.875 22.375 15.0625C23.5 15.3125 24.3125 15.5 24.3125 15.5H24.5C24.75 15.5 25 15.4375 25.25 15.3125C25.9375 15.5 26.8125 15.5625 27.8125 15.5625C29 15.5625 30.0625 15.4375 30.9375 15.1875L31.8125 15.6875L33.0625 16.375L34.625 17.25L32.4375 19.6875L31.4375 20.4375C31.25 20.5625 31.1875 20.8125 31.25 21C31.375 21.25 31.625 21.375 31.875 21.25L32 21.1875C32 21.25 31.9375 21.3125 31.9375 21.4375C31.875 21.6875 31.875 21.9375 31.8125 22.125C31.8125 22.375 31.75 22.625 31.75 22.8125C31.6875 23.1875 32 23.5 32.3125 23.5C32.6875 23.5625 33 23.25 33 22.9375C33 22.6875 33.0625 22.5 33.0625 22.25C33.0625 22 33.125 21.8125 33.1875 21.5625C33.25 21.1875 33.3125 20.8125 33.4375 20.4375L36.8125 17.625L36.9375 17.5C37.4375 17.1875 37.375 16.625 36.9375 16.3125Z" fill="#FFD3B6"/>
<path d="M26.3125 6.125C26.3125 5.9375 26.1875 5.8125 26 5.75C25.8125 5.75 25.6875 5.8125 25.625 6L25.5625 6.5C25.5625 6.6875 25.6875 6.875 25.875 6.875C26.0625 6.875 26.25 6.75 26.25 6.5625L26.3125 6.125Z" fill="#2B3B47"/>
<path d="M29.6875 6.6875C29.6875 6.5 29.5625 6.375 29.375 6.3125C29.1875 6.3125 29.0625 6.375 29 6.5625L28.9375 7.0625C28.9375 7.25 29.0625 7.4375 29.25 7.4375C29.4375 7.4375 29.625 7.3125 29.625 7.125L29.6875 6.6875Z" fill="#2B3B47"/>
<path d="M25.9375 6C25.9375 5.9375 25.9375 5.9375 25.875 5.9375C25.8125 5.9375 25.8125 5.9375 25.8125 6V6.125C25.8125 6.1875 25.8125 6.1875 25.875 6.1875C25.9375 6.1875 25.9375 6.1875 25.9375 6.125V6Z" fill="#959DA3"/>
<path d="M29.3125 6.625C29.3125 6.5625 29.3125 6.5625 29.25 6.5625C29.1875 6.5625 29.1875 6.5625 29.1875 6.625V6.75C29.1875 6.8125 29.1875 6.8125 29.25 6.8125C29.3125 6.8125 29.3125 6.8125 29.3125 6.75V6.625Z" fill="#959DA3"/>
<path d="M27.1875 10.3125C26.5 10.1875 25.9375 9.8125 25.4375 9.375C25.875 10 26.5625 10.5 27.375 10.6875C29 11 30.625 9.9375 30.9375 8.3125L31 8.1875C30.5 9.6875 28.875 10.625 27.1875 10.3125Z" fill="#EDC0A2"/>
<path d="M28.25 9.125C28.25 9.125 27.8125 9.625 27.125 9.5C26.4375 9.375 26.1875 8.8125 26.1875 8.8125H26.5C26.6875 8.8125 26.875 8.6875 27 8.6875C27.125 8.6875 27.1875 8.8125 27.25 8.8125C27.25 8.8125 27.375 8.75 27.5 8.75C27.6875 8.8125 27.8125 8.9375 28 9C28.125 9.125 28.25 9.125 28.25 9.125ZM8.50001 27.375C8.25001 27.25 8.00001 27.0625 8.00001 26.75C8.00001 26.375 8.25001 26 8.68751 26L9.25001 25.875C9.12501 25.8125 9.00001 25.75 8.81251 25.75H8.50001C8.31251 25.75 6.00001 26 6.00001 26C5.62501 26.0625 5.25001 26.375 5.06251 26.875C4.87501 27.5 5.18751 28.0625 5.68751 28.25C5.68751 28.25 5.93751 28.3125 6.25001 28.375C6.43751 28.4375 7.68751 28.3125 7.93751 28.375C8.12501 28.4375 8.25001 28.4375 8.25001 28.4375H8.37501C8.87501 28.4375 9.37501 28.125 9.56251 27.6875C8.93751 27.5 8.50001 27.375 8.50001 27.375ZM32.75 43.3125V43.1875C32.75 43.1875 32.6875 43.0625 32.6875 42.875C32.625 42.6875 32.6875 42 32.625 41.8125C32.5625 41.4375 32.5 41.25 32.5 41.25C32.4375 41.125 32.375 41 32.3125 40.9375C32.25 41.3125 32.25 41.5625 32.25 41.5625C32.25 41.9375 32 42.1875 31.625 42.1875C31.25 42.1875 31 41.9375 31 41.5625L30.8125 40.875C30.5625 41.0625 30.375 41.375 30.375 41.625C30.375 41.625 30.25 43.3125 30.25 43.5C30.25 43.6875 30.3125 43.8125 30.3125 43.8125C30.375 44.5 31.0625 44.875 31.75 44.75C32.3125 44.625 32.875 43.9375 32.75 43.3125ZM33.1875 22.625C33.1875 22.75 33.1875 22.875 33.125 23C33.0625 23.375 32.75 23.625 32.4375 23.5625C32.0625 23.5 31.8125 23.1875 31.875 22.875C31.875 22.625 31.9375 22.375 31.9375 22.1875C32 21.9375 32 21.6875 32.0625 21.5C32.0625 21.4375 32.0625 21.375 32.125 21.3125L32 21.25C31.75 21.375 31.5 21.25 31.375 21C31.3125 20.8125 31.375 20.625 31.4375 20.5L31.3125 20.375C31.1875 20.1875 31.125 19.5 31.125 19.25C31.1875 18.5625 31.375 17.625 31.6875 16.75C31.75 16.6875 31.75 16.5625 31.8125 16.5V16.4375C31.8125 16.375 31.875 16.3125 31.875 16.25C31.875 16.0625 31.9375 15.9375 31.9375 15.75C31.9375 15.3125 31.625 14.8125 31.3125 14.5V12.6875C31.3125 12.4375 31.125 12.1875 30.8125 12.1875C30.5 12.1875 30.3125 12.375 30.3125 12.6875V14.0625H25.5L25.375 12.6875C25.375 12.4375 25.125 12.25 24.875 12.25C24.625 12.25 24.4375 12.5 24.4375 12.75L24.5625 14.4375C24.1875 14.8125 23.8125 15.3125 23.8125 15.8125C23.8125 16.3125 23.9375 16.6875 24.0625 17C24.3125 17.875 24.5 18.75 24.5625 19.375C24.5625 19.5625 24.5625 20.25 24.4375 20.4375C24.4375 20.4375 24.4375 20.5 24.375 20.5C20.375 23.1875 15.4375 20.625 15.6875 23C15.9375 25 17.125 25.3125 19.5625 26.625C22.8125 28.375 19.5625 32.125 23.75 32.3125C27.9375 32.5 26.0625 29.0625 29.1875 29.6875C32.375 30.375 33.5625 33.5625 36.0625 31.125C38 29.5625 35.25 25.3125 33.1875 22.625Z" fill="#FF473E"/>
<path d="M34.0625 11C33.4375 8.9375 33.625 6.625 32.3125 3.6875C32.25 3.5 32.1875 3.375 32.0625 3.1875C32.0625 3.1875 32.0625 3.125 32 3.125C32 3.125 32 3.0625 31.9375 3.0625C31.625 2.5625 31.25 2.125 30.8125 1.8125C30.625 1.6875 29.9375 1.375 29.75 1.3125C29.5625 1.25 29.1875 1.1875 29.1875 1.1875C29 1.125 28.75 1.125 28.5625 1.125C28.375 1.125 27.5625 1.25 27.375 1.3125C26.0625 1.75 24.9375 3.0625 24.75 4.0625C24.75 4.125 24.6875 4.1875 24.6875 4.25C24.0625 8.4375 25.125 11.4375 25.125 11.4375C25.375 11.6875 26.0625 11.8125 26.6875 11.6875V10.625V10.4375C25.375 9.875 24.625 8.5 24.9375 7.0625L25.1875 5.375C26.375 5.375 29.125 5.125 29.3125 3.875C29.3125 3.875 30.125 7.1875 31.5625 7.1875H31.6875C31.875 7.375 32 7.625 31.9375 7.875C31.875 8.25 31.4375 8.5625 31.0625 8.4375C31 8.4375 30.9375 8.375 30.875 8.375C30.6875 9.3125 30.0625 10.0625 29.25 10.4375V11.6875C31.375 12.0625 34.5 12.4375 34.0625 11Z" fill="#68442A"/>
<path d="M27.25 8.0625H27.125C26.9375 8 26.75 7.875 26.625 7.6875C26.625 7.625 26.625 7.5625 26.6875 7.5625C26.75 7.5625 26.8125 7.5625 26.8125 7.625C26.875 7.75 27 7.8125 27.125 7.875C27.25 7.875 27.4375 7.875 27.5 7.75C27.5625 7.6875 27.625 7.6875 27.6875 7.75C27.75 7.8125 27.75 7.875 27.6875 7.9375C27.5625 8 27.375 8.0625 27.25 8.0625ZM29 5.25C28.875 5.3125 28.875 5.4375 28.9375 5.5C29 5.625 29.0625 5.6875 29.1875 5.625H29.25L29.3125 5.5625C29.375 5.5625 29.5 5.5 29.5625 5.5625C29.6875 5.5625 29.75 5.625 29.8125 5.6875C29.875 5.75 29.875 5.8125 29.875 5.8125C29.875 5.875 29.9375 5.875 30 5.875C30.0625 5.875 30.0625 5.8125 30.0625 5.75C30.0625 5.75 30.0625 5.6875 30 5.5625C29.9375 5.5 29.8125 5.375 29.6875 5.3125C29.5625 5.25 29.375 5.25 29.25 5.3125H29.125C29.0625 5.25 29.0625 5.25 29 5.25Z" fill="#E5AB83"/>
</svg>
