<svg width="24" height="24" viewBox="0 0 24 24" fill="none" xmlns="http://www.w3.org/2000/svg">
<path d="M12 1.92857C16.6157 1.92857 20.3572 5.67 20.3572 10.2857C20.3572 13.8171 17.8757 17.6657 12.9772 21.8726C12.7048 22.1066 12.3575 22.2351 11.9984 22.2348C11.6393 22.2344 11.2923 22.1053 11.0203 21.8709L10.6963 21.5897C6.0146 17.4926 3.64288 13.7383 3.64288 10.2857C3.64288 5.67 7.38431 1.92857 12 1.92857ZM12 7.07143C11.1475 7.07143 10.33 7.41008 9.72718 8.01287C9.12439 8.61567 8.78574 9.43323 8.78574 10.2857C8.78574 11.1382 9.12439 11.9558 9.72718 12.5586C10.33 13.1614 11.1475 13.5 12 13.5C12.8525 13.5 13.6701 13.1614 14.2729 12.5586C14.8757 11.9558 15.2143 11.1382 15.2143 10.2857C15.2143 9.43323 14.8757 8.61567 14.2729 8.01287C13.6701 7.41008 12.8525 7.07143 12 7.07143Z" fill="#F40E0E"/>
</svg>
