<svg width="29" height="29" viewBox="0 0 29 29" fill="none" xmlns="http://www.w3.org/2000/svg">
<g filter="url(#filter0_d_214_9)">
<path d="M12.125 15.875L2.75 25.25" stroke="#9E9E9E" stroke-width="2" stroke-linecap="round"/>
<path d="M12.4462 15.5537C11.0396 14.1473 10.2493 12.2396 10.2492 10.2504C10.2491 8.26125 11.0391 6.3535 12.4456 4.94685C13.8521 3.54021 15.7598 2.7499 17.7489 2.74979C19.7381 2.74967 21.6459 3.53975 23.0525 4.94623C24.4591 6.35271 25.2494 8.26036 25.2496 10.2495C25.2497 12.2387 24.4596 14.1465 23.0531 15.5531C22.3567 16.2496 21.5299 16.8021 20.62 17.1791C19.71 17.5561 18.7348 17.7501 17.7498 17.7502C15.7606 17.7503 13.8529 16.9602 12.4462 15.5537V15.5537Z" stroke="#9E9E9E" stroke-width="2" stroke-linecap="round"/>
</g>
<defs>
<filter id="filter0_d_214_9" x="0.75" y="0.749786" width="28.4996" height="28.5002" filterUnits="userSpaceOnUse" color-interpolation-filters="sRGB">
<feFlood flood-opacity="0" result="BackgroundImageFix"/>
<feColorMatrix in="SourceAlpha" type="matrix" values="0 0 0 0 0 0 0 0 0 0 0 0 0 0 0 0 0 0 127 0" result="hardAlpha"/>
<feOffset dx="1" dy="1"/>
<feGaussianBlur stdDeviation="1"/>
<feComposite in2="hardAlpha" operator="out"/>
<feColorMatrix type="matrix" values="0 0 0 0 0 0 0 0 0 0 0 0 0 0 0 0 0 0 0.25 0"/>
<feBlend mode="normal" in2="BackgroundImageFix" result="effect1_dropShadow_214_9"/>
<feBlend mode="normal" in="SourceGraphic" in2="effect1_dropShadow_214_9" result="shape"/>
</filter>
</defs>
</svg>
