<svg width="64" height="64" viewBox="0 0 64 64" fill="none" xmlns="http://www.w3.org/2000/svg">
<g clip-path="url(#clip0_359_49)">
<path d="M17.8 53.5C26.5261 53.5 33.6 46.6947 33.6 38.3C33.6 29.9052 26.5261 23.1 17.8 23.1C9.0739 23.1 2 29.9052 2 38.3C2 46.6947 9.0739 53.5 17.8 53.5Z" fill="#83BF4F"/>
<path d="M17.8 35.8C26.0843 35.8 32.8 29.3529 32.8 21.4C32.8 13.4471 26.0843 7 17.8 7C9.51572 7 2.79999 13.4471 2.79999 21.4C2.79999 29.3529 9.51572 35.8 17.8 35.8Z" fill="#83BF4F"/>
<path d="M34.2 31.8C42.7604 31.8 49.7 25.129 49.7 16.9C49.7 8.67096 42.7604 2 34.2 2C25.6396 2 18.7 8.67096 18.7 16.9C18.7 25.129 25.6396 31.8 34.2 31.8Z" fill="#83BF4F"/>
<path d="M49 41C56.1797 41 62 35.4036 62 28.5C62 21.5964 56.1797 16 49 16C41.8203 16 36 21.5964 36 28.5C36 35.4036 41.8203 41 49 41Z" fill="#83BF4F"/>
<path d="M39.5 52.7C46.6797 52.7 52.5 47.1035 52.5 40.2C52.5 33.2964 46.6797 27.7 39.5 27.7C32.3203 27.7 26.5 33.2964 26.5 40.2C26.5 47.1035 32.3203 52.7 39.5 52.7Z" fill="#83BF4F"/>
<path d="M28.9 64C29.2 60 28.6 55.8 28 51.4C27.4 47 26.6 42.5 26.6 37.9C26.5 33.3 27.1 28.6 28.7 24.3C30.2 20 32.5 16.1 35.2 12.6C32.9 16.4 31.2 20.5 30.3 24.8C29.4 29 29.4 33.4 30 37.6C30.6 41.8 31.8 46 33.1 50.3C34.3 54.6 35.6 59.1 35.9 64H28.9Z" fill="#947151"/>
<path d="M28.4 36.2C30.4 36.4 32.6 36.3 34.7 36.1C36.8 35.9 38.9 35.4 40.9 34.7C42.9 34 44.8 33 46.5 31.7C48.2 30.4 49.7 28.8 50.8 26.9C49.8 28.8 48.5 30.6 46.8 32.1C45.2 33.6 43.3 34.7 41.2 35.6C39.2 36.5 37 37.1 34.9 37.6C32.7 38 30.5 38.3 28.2 38.2L28.4 36.2Z" fill="#947151"/>
<path d="M27.8 34.8C26.3 33.9 25 32.9 23.8 31.9C22.6 30.8 21.4 29.6 20.4 28.4C18.4 25.8 16.9 22.7 16.7 19.5C17.2 22.7 19 25.5 21.2 27.7C22.3 28.8 23.5 29.8 24.8 30.7C26.1 31.6 27.5 32.4 28.8 33L27.8 34.8" fill="#947151"/>
<path d="M29.4 46.1999C27.7 46.0999 26.1 45.7999 24.5 45.3999C22.9 44.9999 21.4 44.3999 19.9 43.5999C17 41.9999 14.5 39.6999 13 36.7999C14.8 39.4999 17.4 41.4999 20.3 42.5999C21.7 43.1999 23.3 43.5999 24.8 43.8999C26.3 44.1999 27.9 44.2999 29.4 44.1999V46.1999Z" fill="#947151"/>
<path d="M9.80001 41.9C9.80001 44.1 8.00001 45.9 8.00001 45.9C8.00001 45.9 6.20001 44.1 6.20001 41.9C6.20001 39.7 8.00001 37.9 8.00001 37.9C8.00001 37.9 9.80001 39.7 9.80001 41.9Z" fill="#75A843"/>
<path d="M56.1 33.2999C56.1 35.4999 54.3 37.2999 54.3 37.2999C54.3 37.2999 52.5 35.4999 52.5 33.2999C52.5 31.0999 54.3 29.2999 54.3 29.2999C54.3 29.2999 56.1 31.0999 56.1 33.2999Z" fill="#75A843"/>
<path d="M14.8 47C14.8 49.2 13 51 13 51C13 51 11.2 49.2 11.2 47C11.2 44.8 13 43 13 43C13 43 14.8 44.8 14.8 47Z" fill="#75A843"/>
<path d="M9.80001 20.9C9.80001 23.1 8.00001 24.9 8.00001 24.9C8.00001 24.9 6.20001 23.1 6.20001 20.9C6.20001 18.7 8.00001 16.9 8.00001 16.9C8.00001 16.9 9.80001 18.7 9.80001 20.9Z" fill="#75A843"/>
<path d="M14.8 15.1C14.8 17.3 13 19.1 13 19.1C13 19.1 11.2 17.3 11.2 15.1C11.2 12.9 13 11.1 13 11.1C13 11.1 14.8 12.9 14.8 15.1" fill="#75A843"/>
<path d="M40.5 18C40.5 20.2 38.7 22 38.7 22C38.7 22 37 20.2 37 18C37 15.8 38.8 14 38.8 14C38.8 14 40.5 15.8 40.5 18Z" fill="#75A843"/>
<path d="M45.5 12.6C45.5 14.8 43.7 16.6 43.7 16.6C43.7 16.6 41.9 14.8 41.9 12.6C41.9 10.4 43.7 8.59998 43.7 8.59998C43.7 8.59998 45.5 10.4 45.5 12.6" fill="#75A843"/>
<path d="M22.2 35.7999C22.2 37.9999 20.4 39.7999 20.4 39.7999C20.4 39.7999 18.6 37.9999 18.6 35.7999C18.6 33.5999 20.4 31.7999 20.4 31.7999C20.4 31.7999 22.2 33.5999 22.2 35.7999Z" fill="#75A843"/>
<path d="M16.6 30.7C16.6 32.9 14.8 34.7 14.8 34.7C14.8 34.7 13 32.9 13 30.7C13 28.5 14.8 26.7 14.8 26.7C14.8 26.7 16.6 28.5 16.6 30.7" fill="#75A843"/>
<path d="M26.1 20.9C26.1 23.1 24.3 24.9 24.3 24.9C24.3 24.9 22.5 23.1 22.5 20.9C22.5 18.7 24.3 16.9 24.3 16.9C24.3 16.9 26.1 18.7 26.1 20.9Z" fill="#75A843"/>
<path d="M30 14C30 16.2 28.2 18 28.2 18C28.2 18 26.4 16.2 26.4 14C26.4 11.8 28.2 10 28.2 10C28.2 10 30 11.8 30 14Z" fill="#75A843"/>
<path d="M35.4 30.7C35.4 32.9 33.6 34.7 33.6 34.7C33.6 34.7 31.8 32.9 31.8 30.7C31.8 28.5 33.6 26.7 33.6 26.7C33.6 26.7 35.4 28.5 35.4 30.7" fill="#75A843"/>
<path d="M49 39.7999C49 41.9999 47.2 43.7999 47.2 43.7999C47.2 43.7999 45.4 41.9999 45.4 39.7999C45.4 37.5999 47.2 35.7999 47.2 35.7999C47.2 35.7999 49 37.5999 49 39.7999Z" fill="#75A843"/>
<path d="M45.5 23.1C45.5 25.3 43.7 27.1 43.7 27.1C43.7 27.1 41.9 25.3 41.9 23.1C41.9 20.9 43.7 19.1 43.7 19.1C43.7 19.1 45.5 20.9 45.5 23.1Z" fill="#75A843"/>
<path d="M39.5 43C39.5 45.2 37.7 47 37.7 47C37.7 47 35.9 45.2 35.9 43C35.9 40.8 37.7 39 37.7 39C37.7 39 39.5 40.8 39.5 43Z" fill="#75A843"/>
<path d="M44.2 47.5C44.2 49.7 42.4 51.5 42.4 51.5C42.4 51.5 40.6 49.7 40.6 47.5C40.6 45.3 42.4 43.5 42.4 43.5C42.4 43.5 44.2 45.3 44.2 47.5Z" fill="#75A843"/>
</g>
<defs>
<clipPath id="clip0_359_49">
<rect width="64" height="64" fill="white"/>
</clipPath>
</defs>
</svg>
